<svg xmlns="http://www.w3.org/2000/svg" id="a6527dbf-c28c-469c-8032-4cbb28df09f4" data-name="Layer 1" width="164.1442" height="208.841" viewBox="0 0 164.1442 208.841"><path d="M163.8182,86.7187c-1.123-9.026-4.734-18.137-11.365-28.674a137.3861,137.3861,0,0,0-16.996-21.756,139.8727,139.8727,0,0,0-44.848-31.348c-4.272-1.856-8.571-3.488-12.776-4.849A1.7805,1.7805,0,0,0,77.2922,0a1.5,1.5,0,0,0-1.386,1.402,1.6159,1.6159,0,0,0,1.121,1.894,135.7621,135.7621,0,0,1,45.52,25.376c14.595,12.362,26.035,26.865,33.083,41.94,4.428,9.472,6.05,18.593,4.821,27.11a48.3336,48.3336,0,0,1-10.274,23.161c-10.359,12.77-26.913,20.095-45.418,20.096-.939,0-1.875-.019-2.814-.058-1.245-.05-2.555-.148-4.122-.304l-1.025-.103.452-1.506c.149-.49.298-.981.432-1.477,5.181-19.159,2.709-39.195-6.616-53.594-4.995-7.714-11.673-13.343-19.313-16.279a35.3655,35.3655,0,0,0-12.536-2.377,27.0515,27.0515,0,0,0-10.092,1.842A22.6342,22.6342,0,0,0,34.9232,84.98c-1.441,9.809,2.389,18.881,5.857,24.765,4.221,7.162,10.646,13.851,19.097,19.879a80.3535,80.3535,0,0,0,25.655,12.086c1.801.481,3.731.907,5.9,1.304l1.01.185-.371.959a74.9138,74.9138,0,0,1-18.442,27.486,74.7681,74.7681,0,0,1-48.695,19.725c-.644.016-1.29.025-1.934.025a71.3058,71.3058,0,0,1-10.742-.801l-2.731-.418,2.493-1.19a40.4867,40.4867,0,0,0,10.146-6.881,1.327,1.327,0,0,0,.406-1.549,1.9367,1.9367,0,0,0-1.697-1.203,1.57,1.57,0,0,0-1.086.462,36.955,36.955,0,0,1-18.676,9.244,1.5848,1.5848,0,0,0-1.099,1.453,1.3769,1.3769,0,0,0,.686,1.497c7.097,3.043,15.93,6.83,17.174,15.744.09.642.935,1.089,1.639,1.089a1.3811,1.3811,0,0,0,.369-.046c1.276-.351,1.187-1.725,1.13-2.137-.587-4.198-2.808-7.777-6.789-10.941l-2.287-1.817,2.905.306a78.59,78.59,0,0,0,50.514-11.963,77.2971,77.2971,0,0,0,30.154-37.925l.231-.625.663.077a75.6692,75.6692,0,0,0,8.574.494h.002c13.673,0,26.257-3.716,36.392-10.745C157.1812,122.5527,165.9912,104.1827,163.8182,86.7187Zm-70.08,52.62-.221.713-.736-.127a76.7778,76.7778,0,0,1-39.685-20.157c-6.793-6.531-11.403-13.652-13.7-21.163-1.528-5.001-3.231-14.534,2.543-22.191,4.905-6.505,11.983-7.871,17.057-7.871a33.912,33.912,0,0,1,21.817,8.354c11.904,10.721,17.833,28.736,15.864,48.191A72.7908,72.7908,0,0,1,93.7382,139.3387Z" transform="translate(-0.0005 0.0003)" style="fill-rule:evenodd"></path></svg>