<svg xmlns="http://www.w3.org/2000/svg" id="b6eda2ec-ff18-4066-a7c3-f5f04c9deee2" data-name="Layer 1" width="672.9985" height="639.1279" viewBox="0 0 672.9985 639.1279"><path d="M96.5985,355.7564c31.335-3.922,65.01,3.84,92.525,19.041,25.065,13.849,48.853,37.634,50.304,67.903,1.75,36.477-38.309,42.098-66.205,42.285-29.679.2-60.408-5.588-85.985-21.253-26.493-16.226-43.42-42.474-50.148-72.541-.2464-1.101-.4534-2.2085-.6749-3.3136q-2.07,2.3854-4.0048,4.9174c4.8626,21.204,14.2819,41.2017,29.6027,57.13,21.169,22.009,50.798,33.75,80.604,38a209.27,209.27,0,0,0,46.08,1.405c13.698-1.088,28.302-3.797,39.708-11.941,26.712-19.073,15.597-56.763-1.685-78.318-18.838-23.498-48.028-37.657-76.819-44.567-31.932-7.665-67.938-7.132-96.268,11.282a100.4165,100.4165,0,0,0-18.4144,15.3953q.5219,3.3594,1.1965,6.6961A94.181,94.181,0,0,1,96.5985,355.7564Z" transform="translate(-0.0015 -2.8721)"></path><path d="M478.9235,27.8544Q419.918,38.5089,361.65,52.8174c-34.685,8.521-69.309,17.682-103.146,29.168-60.581,20.565-120.717,49.735-163.726,98.437-22.818,25.839-39.749,56.38-51.018,88.892-10.731,30.961-17.174,64.214-15.122,97.076A167.68,167.68,0,0,0,31,385.9437q2.0313-2.4393,4.2177-4.762c-4.2432-27.3192-1.3582-55.6088,5.1-82.33,7.939-32.844,21.231-64.507,40.42-92.393,36.211-52.619,92.248-86.373,150.721-109.308,29.475-11.561,59.835-20.7,90.389-28.925q55.0845-14.829,110.984-26.372a1923.5941,1923.5941,0,0,1,227.495-32.97Q666.6619,8.3493,673,7.8621v-4.99A1938.5738,1938.5738,0,0,0,478.9235,27.8544Z" transform="translate(-0.0015 -2.8721)"></path><path d="M3.7675,531.4244C10.5343,570.72,25.8839,608.0032,46.7349,642h5.9406a336.3719,336.3719,0,0,1-28.085-55.3616c-11.885-30.204-19.079-62.317-19.591-94.833-.466-29.592,4.505-60.057,19.022-86.185A105.9433,105.9433,0,0,1,32.41,392.7952Q31.6285,389.388,31,385.9437C-1.0509,424.4311-4.3658,484.1954,3.7675,531.4244Z" transform="translate(-0.0015 -2.8721)"></path></svg>