<svg xmlns="http://www.w3.org/2000/svg" id="edb3e0c0-e4ce-46a5-b14f-b4cc06308477" data-name="Layer 1" width="413.7658" height="779.9564" viewBox="0 0 413.7658 779.9564"><path d="M329.7729,312.0247c11.5016-21.1887,19.9838-44.1949,23.2093-68.4037,5.0691-38.0486-4.576-77.3764-25.33-112.6812C307.3006,96.32,277.114,66.2527,241.9309,44.0067c-37.28-23.572-80.0244-36.9918-123.1562-41.1114A329.3713,329.3713,0,0,0,0,13.7068v3.5165A336.3324,336.3324,0,0,1,45.4338,7.7862c41.808-5.69,85.7459-3.4706,127.8588,8.7928a267.5546,267.5546,0,0,1,106.641,60.72c29.3594,27.2727,52.3029,60.99,63.5295,97.3472,13.3308,43.1673,6.9485,86.4574-11.339,124.7714-11.02,23.0882-25.9264,46.9738-46.213,64.6693.985.6652,1.9752,1.323,2.9557,1.9943C305.97,350.8571,319.0616,331.7606,329.7729,312.0247Z" transform="translate(0 -1.4806)" style="isolation:isolate"></path><path d="M238.4711,388.9718c-39.58,9.1886-84.3449-3.4286-119.5819-25.8791-18.965-12.0832-42.6155-30.48-39.8664-53.3308,3.1613-26.276,36.9055-21.0834,57.9559-16.1548,26.175,6.1279,51.0314,17.4789,74.8149,30.104A804.2451,804.2451,0,0,1,281.4952,364.96c.634.4236,1.2647.8529,1.8971,1.2793.8506-.7047,1.6866-1.4263,2.5188-2.1523q-6.5228-4.4048-13.1493-8.6587a783.5608,783.5608,0,0,0-72.6842-41.3764c-24.3387-12.0971-50.0939-22.3031-76.7987-26.4344-10.8272-1.6752-22.6015-2.8081-32.4715,1.1315-9.0764,3.6225-14.42,11.5275-15.3754,20.7827-2.2487,21.7865,17.3026,39.5184,35.332,52.0123a195.8959,195.8959,0,0,0,58.2265,27.5792c20.4683,5.754,41.938,7.8011,62.2434,4.6682a111.372,111.372,0,0,0,55.1236-25.54q-1.4793-1.0119-2.9652-2.0123A108.3905,108.3905,0,0,1,238.4711,388.9718Z" transform="translate(0 -1.4806)" style="isolation:isolate"></path><path d="M409.25,518.5966c-9.8777-42.7963-37.1435-81.9435-71.027-113.501a421.4454,421.4454,0,0,0-49.3559-39.014c-.1648.1468-.3239.2991-.49.4451-.664.5855-1.3432,1.1538-2.02,1.7252,39.5183,27.03,75.6772,59.6582,98.9557,99.9867,10.9149,18.9081,18.8665,39.2322,22.2781,59.934,3.8423,23.32,2.3958,46.1291-1.9889,69.0729A287.41,287.41,0,0,1,384.6749,662.46c-8.72,19.174-19.1155,33.0516-31.6927,50.0792-12.0943,16.3739-32.3295,33.6388-50.2664,44.5906-19.2456,11.7509-41.6834,18.0153-65.2624,20.1218-48.2364,4.31-99.45-4.5389-147.0523-18.4522A678.071,678.071,0,0,1,0,724.746v3.5186q11.6664,5.2759,23.4917,10.196c48.7942,20.2016,99.96,35.308,151.85,40.7939,48.2851,5.1044,98.1052,2.778,136.1606-23.6382,35.8316-24.8715,63.2695-61.14,79.9328-99.4159C409.7141,614.2115,420.3381,566.637,409.25,518.5966Z" transform="translate(0 -1.4806)" style="isolation:isolate"></path></svg>