<svg xmlns="http://www.w3.org/2000/svg" id="bc0b4436-2156-40b2-b2af-ab3fdf7316b1" data-name="Layer 1" width="51.911" height="43.9951" viewBox="0 0 51.911 43.9951"><path d="M42.1044,18.95q.1488-.385.2735-.7671a14.6074,14.6074,0,0,0,.6977-5.3184A12.3848,12.3848,0,0,0,39.0621,4.49a12.167,12.167,0,0,0-8.1683-3.4852,14.2673,14.2673,0,0,0-9.158,3.7974.3106.3106,0,0,1-.4121.005c-1.6574-1.42-5.0466-3.8024-9.1241-3.8024A12.59,12.59,0,0,0,2.8393,5.77S-.6921,9.2169.1218,15.5513a9.0072,9.0072,0,0,0,.5946,2.6315,17.8589,17.8589,0,0,0,1.612,3.5034c1.6878,2.88,7.8362,7.9126,12.7766,11.9563,1.256,1.028,2.4422,1.9989,3.3454,2.7675a4.7334,4.7334,0,0,0,6.1573.0012c.4543-.3862.9719-.817,1.5684-1.3085A13.102,13.102,0,1,0,42.1044,18.95ZM25.794,32.7913c-1.0007.82-1.814,1.4909-2.4936,2.0687a2.7229,2.7229,0,0,1-3.5421-.0006c-.918-.7811-2.1116-1.7581-3.3752-2.7923C11.8222,28.334,5.5757,23.2214,4.0721,20.6553a14.2009,14.2009,0,0,1-1.859-4.8087q-.0235-.1347-.0443-.2709A11.31,11.31,0,0,1,4.4025,7.06,10.5308,10.5308,0,0,1,12.2,3.0374c3.4286,0,6.3654,2.0777,7.8108,3.3162a2.3414,2.3414,0,0,0,3.0647-.0277,12.259,12.259,0,0,1,7.8186-3.2885,10.8217,10.8217,0,0,1,10.1607,9.9245,12.6038,12.6038,0,0,1-.5995,4.5882c-.1137.3486-.2418.6923-.3876,1.04q-.61-.0581-1.2342-.0586a13.1719,13.1719,0,0,0-13.078,13.2345Q25.7551,32.2833,25.794,32.7913ZM38.8333,42.9676A11.2031,11.2031,0,1,1,49.8879,31.7655,11.1418,11.1418,0,0,1,38.8333,42.9676Z" transform="translate(0 -1.0049)" style="fill-rule:evenodd"></path><path d="M43.7866,28.5913H42.4131V27.2072A2.2127,2.2127,0,0,0,40.2,25H37.8a2.2127,2.2127,0,0,0-2.2134,2.2071v1.3841H34.2134A2.2127,2.2127,0,0,0,32,30.7984v2.4032a2.2127,2.2127,0,0,0,2.2134,2.2072h1.3735V36.793A2.2128,2.2128,0,0,0,37.8,39h2.4a2.2127,2.2127,0,0,0,2.2133-2.2071V35.4088h1.3735A2.2127,2.2127,0,0,0,46,33.2016V30.7984A2.2127,2.2127,0,0,0,43.7866,28.5913Zm.2149,4.61a.2193.2193,0,0,1-.2148.2231H41.4139a.9958.9958,0,0,0-.9993.992v2.3762a.2194.2194,0,0,1-.2148.2231H37.8a.2192.2192,0,0,1-.2148-.2231V34.4166a.9958.9958,0,0,0-.9993-.992H34.2135a.2193.2193,0,0,1-.2148-.2231V30.7983a.2193.2193,0,0,1,.2148-.223h2.3728a.9957.9957,0,0,0,.9993-.992V27.2071a.2191.2191,0,0,1,.2148-.223H40.2a.2192.2192,0,0,1,.2148.223v2.3762a.9957.9957,0,0,0,.9993.992h2.3728a.2192.2192,0,0,1,.2148.223Z" transform="translate(0 -1.0049)" style="fill-rule:evenodd"></path></svg>