<svg xmlns="http://www.w3.org/2000/svg" id="e8956f3c-eb18-4e15-a534-5268528f1e5c" data-name="Layer 1" width="747.7479" height="711.7913" viewBox="0 0 747.7479 711.7913"><path d="M633.5676,202.5439l-1.9408-.3006a456.7,456.7,0,0,0-64.8309-4.8187l-.9225-.0073h-.0088c6.1134-23.9318,6.3029-48.9055,3.9776-73.0153-2.4953-25.89-8.789-51.5835-20.512-75.1812A173.3059,173.3059,0,0,0,512.3467,0h-5.31c32.962,29.9312,51.0254,69.6382,57.3015,111.7084l.2,1.36c3.8846,26.7962,4.829,56.4361-2.39,83.9092l-.1136.4258-1.1762,0q-7.9173.011-15.8361.2138a845.9946,845.9946,0,0,0-90.0049,6.8468c-29.0777,3.8651-58.2818,10.276-84.67,22.6929-10.6987,5.0341-21.9177,11.1247-28.3718,20.603-5.9352,8.716-5.9464,19.01-1.2158,27.864,11.1352,20.842,39.33,24.9048,63.0015,25.2013a211.5,211.5,0,0,0,68.7425-10.4637c21.7868-7.2029,42.2326-18.3255,58.5108-33.3783l.68-.6334A120.1755,120.1755,0,0,0,564.7712,201.48l.1709-.6.0989.0006c51.6338.3426,103.634,7.7181,148.7662,29.7258A211.9045,211.9045,0,0,1,748,251.3339V246.743C715.5494,223.2285,675.0334,209.08,633.5676,202.5439Zm-72.5842-1.393c-5.0561,17.0827-13.427,33.2131-26.401,47.1556-29.87,32.0979-77.5385,47.8215-122.6157,49.002-24.2611.6353-56.5249-1.5494-67.8545-23.645-13.028-25.4077,20.2991-41.1226,42.1086-49.4149C413.34,213.937,442.43,209.0923,471.33,206.0345a868.3105,868.3105,0,0,1,87.26-5.161l1.6125-.005.8641-.0005Z" transform="translate(-0.2521)"></path><path d="M87.3146,65.5151c-30.6534,38.183-52.3693,81.1142-66.2395,125.98l-.5118,1.6679C5.6538,242.1072.0081,292.722.26,342.9171L.2682,344h3.881A561.9093,561.9093,0,0,1,8.075,272.07c5.8776-48.4148,18.8108-96.6888,41.6121-141.5487A365.1356,365.1356,0,0,1,131.8268,23.85,351.2426,351.2426,0,0,1,161.6714,0h-6.1167A364.2022,364.2022,0,0,0,87.3146,65.5151Z" transform="translate(-0.2521)"></path><path d="M461.204,700.96c-36.8889,3.9043-74.0693,6.4883-111.2044,7.5311l0,3.3q14.3073-.4432,28.6107-1.1481c58.4534-2.8472,117.0627-8.3627,174.5172-20.06,55.8507-11.3714,110.7488-28.7308,160.4885-55.1309,11.7848-6.255,23.3647-13.0044,34.3837-20.3547V611.077c-36.7452,25.1634-79.7991,43.6244-122.73,57.3281C572.1815,685.3512,516.7225,695.0841,461.204,700.96Z" transform="translate(-0.2521)"></path></svg>