<svg xmlns="http://www.w3.org/2000/svg" id="b092c21a-5b74-4858-ae14-4c9e3cb99f4a" data-name="Layer 1" width="155" height="51" viewBox="0 0 155 51"><path d="M153.3085,1.1085A6.511,6.511,0,0,0,151.9836,1c-.2674,0-.5348.0073-.8006.0155-.2625.0073-.5235.0139-.7787.0147l-8.5515.02a1.41,1.41,0,0,0-.9924.4506,1.1819,1.1819,0,0,0-.3512.8622,1.392,1.392,0,0,0,1.34,1.3756l7.0869-.0171-.6559,1.0618c-3.3293,5.3811-8.5369,9.9911-15.4783,13.7006-6.1959,3.3136-13.39,5.8789-22.64,8.0752A124.788,124.788,0,0,1,84.008,29.8911q-1.2325.0255-2.4652.0252c-1.7166,0-3.5015-.0367-5.306-.1092L75.56,29.78l.0137-.68a21.04,21.04,0,0,0-.143-2.9672c-.673-5.4543-3.8576-11.9208-10.7794-13.7088a13.5084,13.5084,0,0,0-3.3756-.4311A11.6126,11.6126,0,0,0,53.762,14.61,9.7014,9.7014,0,0,0,50.8,24.0993c1.02,4.3045,5.0638,5.927,8.2768,6.5317A114.1772,114.1772,0,0,0,71.77,32.2332l.8087.06-.187.79a19.3089,19.3089,0,0,1-2.9984,6.667c-4.7915,6.7517-13.9875,8.67-17.7191,9.181a44.7975,44.7975,0,0,1-6.0554.4,64.2339,64.2339,0,0,1-16.21-2.2793A77.2714,77.2714,0,0,1,6.986,37.2263c-1.6712-1.0749-3.365-2.2615-5.0354-3.5271a.8372.8372,0,0,0-.5193-.16,1.5582,1.5582,0,0,0-1.2461.6886A1.4433,1.4433,0,0,0,.733,36.1114,79.3127,79.3127,0,0,0,24.2036,48.3345,69.2387,69.2387,0,0,0,45.4543,52c1.194,0,2.3856-.0407,3.5414-.1214,6.1862-.4327,14.8369-2.2777,20.924-8.6057a20.8175,20.8175,0,0,0,5.2272-10.2421l.1178-.58.59.0253c1.7987.0783,3.6284.1173,5.4376.1173a130.0741,130.0741,0,0,0,20.794-1.69,114.6952,114.6952,0,0,0,26.1121-7.29c8.6588-3.65,15.0255-8.0287,19.4642-13.3861a35.6449,35.6449,0,0,0,3.2423-4.5961L152.19,6.02l-.2829,5.7167a1.2253,1.2253,0,0,0,.3674.881,1.3087,1.3087,0,0,0,.94.4286h.0032a1.3885,1.3885,0,0,0,1.372-1.3789l.2869-5.7811c.0139-.28.0342-.5639.0545-.8483a15.7867,15.7867,0,0,0,.0626-1.7554A2.18,2.18,0,0,0,153.3085,1.1085ZM72.9011,29.63l-1.2875-.0914c-.3568-.0236-.7145-.048-1.0721-.0781l-.6031-.0514a63.4078,63.4078,0,0,1-12.036-1.8034,6.169,6.169,0,0,1-3.99-2.8067,6.3907,6.3907,0,0,1-.604-4.1382,7.2986,7.2986,0,0,1,6.4236-5.8952,9.6522,9.6522,0,0,1,1.433-.1059,11.1317,11.1317,0,0,1,7.2006,2.6827,12.94,12.94,0,0,1,3.9283,6.5374,18.1186,18.1186,0,0,1,.6185,5.0167Z" transform="translate(0 -1.0001)" style="fill-rule:evenodd"></path></svg>