<svg xmlns="http://www.w3.org/2000/svg" id="a2ae1f05-f5a8-4213-9cd7-48f8f13435b0" data-name="Layer 1" width="50" height="52" viewBox="0 0 50 52"><path d="M50,24.8646a25,25,0,1,0-32.6041,23.697,1.01,1.01,0,0,0,.3051.0464,1.1091,1.1091,0,0,0,.5595-.1523,1.0377,1.0377,0,0,0,.4626-.5792L25.0364,27.97a3.1088,3.1088,0,1,0-1.3718-5.9065L15.324,13.7653a1.0457,1.0457,0,0,0-1.4728.0254,1.0325,1.0325,0,0,0,0,1.44l8.3362,8.3023a3.0388,3.0388,0,0,0,.8761,3.7524L17.048,46.2538A22.8347,22.8347,0,1,1,32.9064,3.4266a22.7781,22.7781,0,0,1,1.407,42.2583l-.65-3.0457a1.0433,1.0433,0,0,0-1.7124-.5581l-6.2676,5.5664a1.0322,1.0322,0,0,0-.0853,1.4632,1.0456,1.0456,0,0,0,.4625.2987L34.0626,51.95a1.0424,1.0424,0,0,0,1.31-.67A1.0316,1.0316,0,0,0,35.4,50.748l-.6389-2.9886A24.7863,24.7863,0,0,0,50,24.8646ZM25,23.8283a1.0363,1.0363,0,1,1-1.0416,1.0363A1.0393,1.0393,0,0,1,25,23.8283ZM28.431,47.9824l3.5677-3.1659.9847,4.6155Z" transform="translate(0 0)"></path><path d="M24,6V8a1,1,0,0,0,2,0V6a1,1,0,0,0-2,0Z" transform="translate(0 0)"></path><path d="M5,24a1,1,0,0,0,0,2H7a1,1,0,0,0,0-2Z" transform="translate(0 0)"></path><path d="M45,26a1,1,0,0,0,0-2H43a1,1,0,0,0,0,2Z" transform="translate(0 0)"></path></svg>