<svg xmlns="http://www.w3.org/2000/svg" id="e5f413a8-331c-4d5a-b02a-4e3130e12e8d" data-name="Layer 1" width="176" height="41" viewBox="0 0 176 41"><path d="M175.9544,18.1649c-.8881-3.7026-1.9641-7.4-3.1976-10.99A1.4728,1.4728,0,0,0,171.4762,6.13a1.0487,1.0487,0,0,0-.3278.0545,1.579,1.579,0,0,0-.8937.7861,1.08,1.08,0,0,0-.07.8284c.4013,1.1678.8153,2.4511,1.2654,3.9232l.6907,2.2574-1.777-1.5218C160.71,4.1917,147.1586,0,130.0875,0q-1.0949,0-2.1856.0228a161.1146,161.1146,0,0,0-25.3,2.6887c-3.9314.7063-8.9852,1.86-13.2,4.5334-.4405.2784-.8769.5794-1.2974.8944l-.263.1961-.315-.0855a44.078,44.078,0,0,0-9.8621-1.2735c-1.1128-.04-2.2439-.0594-3.3623-.0594A100.5459,100.5459,0,0,0,51.4133,9.6024,103.5786,103.5786,0,0,0,4.9875,34.16C3.4448,35.5787,1.8963,37.1013.3823,38.6848a1.2037,1.2037,0,0,0-.2782,1.37A1.4975,1.4975,0,0,0,1.3911,41a1.1546,1.1546,0,0,0,.8433-.4028A100.7494,100.7494,0,0,1,43.42,14.6413,99.2143,99.2143,0,0,1,67.3373,9.8531c2.391-.1709,4.7572-.2588,7.0323-.2588,1.7722,0,3.5341.0529,5.236.157a43.7739,43.7739,0,0,1,4.6629.5135l1.1767.1994-.7691.9294a17.5985,17.5985,0,0,0-3.132,5.5368,12.1715,12.1715,0,0,0,1.7132,11.4033,10.7139,10.7139,0,0,0,8.2753,4.3919,8.3441,8.3441,0,0,0,1.16-.0805,8.8123,8.8123,0,0,0,7.0339-6.3572,13.6928,13.6928,0,0,0-.9129-9.919A14.3885,14.3885,0,0,0,92.0786,10l-1.1807-.6031,1.1687-.6273a32.2193,32.2193,0,0,1,8.2745-2.88A140.3017,140.3017,0,0,1,123.873,2.8555c2.1831-.1156,4.3175-.1733,6.344-.1733,15.4651,0,27.4153,3.3486,36.5332,10.2363.8305.6267,1.6787,1.3371,2.5916,2.1712l1.6915,1.5453-7.8476-1.2084a2.1749,2.1749,0,0,0-.3182-.0244,1.3161,1.3161,0,0,0-1.3749.9154,1.7155,1.7155,0,0,0,.2429,1.2524.8683.8683,0,0,0,.5916.4118l11.9318,1.8375a2.9193,2.9193,0,0,0,.43.0358,1.206,1.206,0,0,0,.9312-.3646A1.3863,1.3863,0,0,0,175.9544,18.1649Zm-78.7277,1.442A9.4308,9.4308,0,0,1,96.02,27.8658,7.671,7.671,0,0,1,94.74,29.06a5.8657,5.8657,0,0,1-2.1079.8976,5.3266,5.3266,0,0,1-1.0856.11,7.0411,7.0411,0,0,1-3.304-.8919,9.0994,9.0994,0,0,1-4.7739-8.44,13.7967,13.7967,0,0,1,4.6485-9.1386l.3053-.29.3925.1456a18.5114,18.5114,0,0,1,2.0129.8692C94.2433,14.0717,96.3961,16.5227,97.2267,19.6069Z" transform="translate(0)" style="fill-rule:evenodd"></path></svg>